<?xml version="1.0" encoding="UTF-8" standalone="no"?><!DOCTYPE svg PUBLIC "-//W3C//DTD SVG 1.1//EN" "http://www.w3.org/Graphics/SVG/1.1/DTD/svg11.dtd"><svg width="100%" height="100%" viewBox="0 0 500 500" version="1.1" xmlns="http://www.w3.org/2000/svg" xmlns:xlink="http://www.w3.org/1999/xlink" xml:space="preserve" xmlns:serif="http://www.serif.com/" style="fill-rule:evenodd;clip-rule:evenodd;stroke-linejoin:round;stroke-miterlimit:2;"><g><path id="dp_path002" d="M111.859,486.133l-12.695,-45.998l-23.602,45.867l-18.574,-73.909l13.981,-0.007l8.954,37.506l23.135,-43.326l12.771,43.531l19.074,-37.719l13.349,0.01l-36.393,74.045Z" style="fill:#fff;"/><path id="dp_path003" d="M182.685,429.508c-0.143,6.181 -7.074,10.334 -12.043,12.538c-6.557,2.908 -13.657,4.085 -20.797,4.155c1.459,-7.406 5.513,-13.773 11.616,-18.228c4.137,-3.017 15.406,-8.691 19.787,-3.224c1.004,1.264 1.488,2.85 1.437,4.759m13.474,-2.095c-0.026,-4.92 -1.673,-8.886 -4.966,-11.886c-6.144,-5.637 -16.059,-5.365 -23.598,-3.371c-8.938,2.366 -17.024,7.735 -22.906,14.839c-10.345,12.5 -14.652,34.977 -1.259,47.115c9.857,8.955 27.41,10.031 38.513,2.765l3.405,-13.797c-7.789,6.475 -22.629,10.353 -31.329,2.902c-2.738,-2.342 -4.323,-5.427 -4.768,-9.269c18.249,-0.027 46.587,-6.225 46.908,-29.298" style="fill:#fff;"/><path id="dp_path004" d="M245.137,436.139c-0.139,10.229 -4.257,20.23 -11.997,27.045c-3.809,3.354 -8.402,5.84 -13.408,6.803c-4.479,0.862 -10.408,0.909 -14.419,-1.615c1.275,-7.011 2.222,-14.174 3.953,-21.09c1.897,-7.579 5.726,-14.925 11.753,-20.031c5.651,-4.788 14.926,-7.759 20.737,-1.485c2.205,2.367 3.332,5.824 3.381,10.373m13.473,0.445c-0.121,-10.64 -5.205,-21.657 -16.145,-24.811c-10.258,-2.956 -22.973,1.329 -28.535,10.546l-0.297,-0.148l8.471,-48.098l-13.522,0l-17.98,101.29c6.148,4.345 14.242,5.945 21.629,6.207c8.562,0.305 17.013,-1.985 24.376,-6.34c13.774,-8.144 21.764,-22.759 22.003,-38.646" style="fill:#fff;"/><path id="dp_path006" d="M306.657,429.508c-0.146,6.181 -7.075,10.334 -12.045,12.538c-6.556,2.908 -13.655,4.085 -20.797,4.155c1.46,-7.406 5.513,-13.773 11.618,-18.228c4.136,-3.017 15.405,-8.691 19.787,-3.224c1.003,1.264 1.486,2.85 1.437,4.759m13.474,-2.095c-0.026,-4.92 -1.674,-8.886 -4.967,-11.886c-6.144,-5.638 -16.059,-5.364 -23.597,-3.371c-8.939,2.366 -17.025,7.735 -22.906,14.839c-10.345,12.5 -14.652,34.977 -1.26,47.115c9.857,8.955 27.411,10.031 38.513,2.765l3.406,-13.797c-7.789,6.475 -22.629,10.353 -31.33,2.902c-2.738,-2.342 -4.322,-5.427 -4.768,-9.269c18.248,-0.027 46.587,-6.225 46.909,-29.298" style="fill:#fff;"/><path id="dp_path007" d="M366.366,423.336c-1.204,6.603 -2.215,13.272 -3.645,19.83c-1.703,7.818 -5.226,15.329 -11.038,20.941c-5.059,4.886 -14.502,9.469 -20.473,3.336c-3.736,-3.836 -3.14,-10.414 -2.34,-15.233c0.979,-5.895 3.424,-11.388 7.084,-16.105c7.218,-9.303 18.662,-14.406 30.412,-12.769m15.306,-10.113c-19.166,-3.398 -40.007,-1.289 -54.065,13.479c-6.456,6.782 -10.614,15.131 -12.067,24.383c-1.344,8.548 -1.028,18.508 5.851,24.735c5.739,5.198 13.516,6.669 20.984,5.058c7.957,-1.716 13.79,-6.747 17.601,-13.82l0.297,0.15l-2.97,12.641l12.63,-0l11.739,-66.626" style="fill:#fff;"/><path id="dp_path008" d="M443.012,413.233l-15.006,0c-1.387,7.868 -2.381,18.039 -4.159,25.828c-2.14,9.383 -3.504,15 -8.317,21.83c-2.705,3.84 -6.515,6.611 -10.951,8.245c-3.846,1.416 -9.706,2.324 -12.686,-1.284c-2.987,-3.649 -1.699,-8.262 -0.971,-12.428c0.96,-5.484 1.919,-10.967 2.879,-16.45c1.543,-8.827 3.087,-16.914 4.631,-25.741l-13.499,0c-1.73,9.865 -3.46,18.987 -5.192,28.85c-1.905,10.859 -7.277,25.844 2.518,34.382c5.994,5.211 13.809,5.872 21.31,4.093c7.512,-1.783 12.708,-7.155 16.857,-13.5l0.297,1.633l-1.487,11.899l11.886,0l10.406,-67.357" style="fill:#fff;"/></g><path id="dp_path005" d="M167.034,163.386c-7.016,-12.928 -9.858,-28.711 -7.515,-45.972c7.478,-55.039 55.732,-99.794 113.117,-100.535c69.145,-0.89 115.273,49.155 106.378,115.479c-1.484,11.087 -4.485,22.159 -8.804,32.963c53.778,9.936 86.907,57.701 78.531,118.389c-7.881,57.036 -58.148,99.503 -113.509,100.093c-35.511,0.376 -64.076,-21.92 -69.385,-51.376c-35.316,33.573 -73.82,50.976 -113.636,51.337c-66.693,0.591 -110.444,-51.564 -100.95,-120.29c7.878,-57.042 56.623,-99.391 115.773,-100.088Zm174.586,30.613c-42.897,0.132 -76.194,26.287 -95.606,51.165c-15.823,20.28 -25.943,43.34 -60.921,59.282c-6.666,3.035 -15.198,5.14 -22.604,5.215c-31.655,0.34 -55.128,-23.934 -40.998,-55.885c3.085,27.434 20.327,35.822 39.177,35.058c18.411,-0.742 39.826,-18.169 44.567,-42.994c5.929,-31.049 -17.777,-51.016 -43.548,-52.285c-37.862,-1.855 -73.129,30.768 -78.569,70.159c-6.891,49.926 26.804,89.984 75.262,89.466c46.322,-0.492 94.637,-33.721 113.476,-71.942c8.281,-16.806 29.777,-33.703 41.778,-38.939c10.207,-4.453 16.441,-5.081 23.901,-5.527c31.347,-1.881 55.099,24.684 40.973,56.63c-3.086,-27.429 -20.329,-35.816 -39.176,-35.058c-18.416,0.742 -39.831,18.174 -44.568,42.997c-5.928,31.056 17.773,51.023 43.548,52.283c37.863,1.857 73.125,-30.761 78.568,-70.157c6.895,-49.924 -26.854,-89.618 -75.26,-89.468Zm-1.526,-30.272c-38.498,0.646 -74.465,20.296 -104.91,50.017c14.512,-22.619 32.489,-28.388 45.441,-41.114c12.953,-12.727 21.714,-21.054 25.19,-43.432c3.476,-22.379 -18.159,-53.695 -51.512,-43.606c26.74,6.485 32.889,24.694 29.791,43.365c-3.025,18.243 -22.929,37.389 -48.069,39.016c-31.448,2.037 -48.241,-24.046 -46.28,-49.867c2.881,-37.921 39.527,-68.965 79.164,-69.482c50.225,-0.647 85.647,37.89 79.1,86.069c-1.355,9.996 -4.06,19.736 -7.915,29.034Z" style="fill:#f2af0d;"/></svg>